<?xml version="1.0" encoding="UTF-8"?>
<svg id="Layer_1" xmlns="http://www.w3.org/2000/svg" version="1.1" viewBox="0 0 307.4 380.94">
  <!-- Generator: Adobe Illustrator 29.8.3, SVG Export Plug-In . SVG Version: 2.1.1 Build 3)  -->
  <defs>
    <style>
      .st0 {
        fill: #231f20;
      }
    </style>
  </defs>
  <path class="st0" d="M299.18,351.83c8.83,12.09.2,29.09-14.77,29.09h-135c-14.97,0-23.61-17-14.77-29.09l67.5-92.4c7.31-10,22.24-10,29.55,0l67.5,92.4ZM126.06,344.74c.1-.15.21-.3.32-.45l.17-.24h-.02l180.87-247.58-77.18-56.38-108.3,148.23-.02.03V47.79C121.9,22.55,102.32,1.87,77.52.12H29.27v-.12H0c13.93,0,25.33,10.83,26.25,24.53h.06v329.24c0,.12,0,.23.01.35.18,14.83,12.27,26.8,27.14,26.8h59.75v.02h13.31c-1.23-1.54-2.32-3.23-3.24-5.05-.52-1.02-.97-2.06-1.36-3.12-3.21-8.63-2.19-18.21,2.85-26.01.4-.69.83-1.36,1.29-2.02Z"/>
</svg>