<?xml version="1.0" encoding="UTF-8"?>
<svg id="Layer_1" xmlns="http://www.w3.org/2000/svg" version="1.1" viewBox="0 0 2157.4 553.99">
  <path d="M234.5,263.28c-8.7-11.91-26.47-11.91-35.17,0l-60.65,83.02c-10.51,14.39-.24,34.62,17.58,34.62h121.3c17.82,0,28.1-20.23,17.58-34.62l-60.65-83.02h.01ZM124.12,372.48c-.98-1.93-1.72-3.94-2.2-5.98-1-4.15-.99-8.45,0-12.56.82-3.41,2.33-6.7,4.48-9.65l.17-.24h-.03l180.87-247.58-77.19-56.39-108.32,148.27V47.79C121.9,22.54,102.33,1.87,77.52.12H29.27v-.12H0c13.93,0,25.34,10.83,26.25,24.53h.06v329.24c0,14.99,12.15,27.15,27.15,27.15h77.31c-2.72-2.28-5-5.13-6.67-8.43h.02ZM480.37,339.76c-13.93,11.84-27.33,20.19-40.21,25.07-12.88,4.87-26.71,7.31-41.46,7.31-24.37,0-43.1-5.95-56.19-17.86-13.09-11.91-19.64-27.12-19.64-45.64,0-10.86,2.47-20.78,7.42-29.77,4.94-8.98,11.42-16.19,19.43-21.62,8.01-5.43,17.02-9.54,27.05-12.33,7.38-1.95,18.52-3.83,33.42-5.64,30.36-3.62,52.71-7.94,67.05-12.95.14-5.15.21-8.42.21-9.82,0-15.32-3.55-26.11-10.65-32.38-9.61-8.49-23.88-12.74-42.82-12.74-17.69,0-30.74,3.1-39.17,9.29-8.43,6.2-14.66,17.17-18.7,32.9l-36.76-5.01c3.34-15.74,8.84-28.44,16.5-38.12,7.66-9.68,18.73-17.13,33.21-22.35,14.48-5.22,31.26-7.83,50.34-7.83s34.33,2.23,46.16,6.68c11.83,4.46,20.54,10.06,26.11,16.82,5.57,6.76,9.47,15.29,11.7,25.59,1.25,6.41,1.88,17.96,1.88,34.67v50.13c0,34.96.8,57.06,2.4,66.32,1.6,9.26,4.77,18.14,9.5,26.63h-39.27c-3.9-7.8-6.41-16.92-7.52-27.36ZM477.23,255.78c-13.65,5.57-34.12,10.31-61.41,14.2-15.46,2.23-26.39,4.74-32.79,7.52-6.41,2.79-11.35,6.86-14.83,12.22-3.48,5.36-5.22,11.32-5.22,17.86,0,10.03,3.79,18.38,11.38,25.07,7.59,6.68,18.7,10.03,33.32,10.03s27.36-3.17,38.64-9.5c11.28-6.33,19.56-15,24.86-26.01,4.04-8.49,6.06-21.03,6.06-37.6v-13.79ZM558.49,300.9l37.18-5.85c2.09,14.9,7.9,26.32,17.44,34.26,9.54,7.94,22.87,11.91,40,11.91s30.08-3.51,38.44-10.55c8.36-7.03,12.53-15.28,12.53-24.75,0-8.49-3.69-15.18-11.07-20.05-5.15-3.34-17.96-7.59-38.44-12.74-27.57-6.96-46.69-12.98-57.34-18.07-10.65-5.08-18.73-12.12-24.23-21.1-5.5-8.98-8.25-18.9-8.25-29.77,0-9.89,2.26-19.04,6.79-27.47,4.52-8.42,10.69-15.42,18.49-20.99,5.85-4.31,13.82-7.97,23.92-10.97,10.1-2.99,20.92-4.49,32.48-4.49,17.41,0,32.69,2.51,45.85,7.52,13.16,5.01,22.87,11.8,29.14,20.37s10.58,20.02,12.95,34.36l-36.76,5.01c-1.67-11.42-6.51-20.33-14.52-26.74-8.01-6.4-19.32-9.61-33.94-9.61-17.27,0-29.59,2.86-36.97,8.56-7.38,5.71-11.07,12.4-11.07,20.05,0,4.88,1.53,9.26,4.6,13.16,3.06,4.04,7.87,7.38,14.41,10.03,3.76,1.39,14.83,4.6,33.21,9.61,26.6,7.1,45.15,12.92,55.67,17.44,10.51,4.53,18.76,11.11,24.75,19.74,5.99,8.64,8.98,19.36,8.98,32.17s-3.66,24.34-10.97,35.41c-7.31,11.07-17.86,19.64-31.65,25.69s-29.38,9.09-46.79,9.09c-28.83,0-50.8-5.99-65.9-17.96-15.11-11.97-24.75-29.73-28.93-53.27ZM787.43,367.12V60.89h37.6v109.87c17.55-20.33,39.69-30.5,66.43-30.5,16.43,0,30.71,3.24,42.82,9.71,12.12,6.48,20.78,15.42,26.01,26.84,5.22,11.42,7.83,27.99,7.83,49.71v140.58h-37.6v-140.58c0-18.8-4.07-32.48-12.22-41.05s-19.67-12.85-34.57-12.85c-11.14,0-21.62,2.89-31.44,8.67-9.82,5.78-16.82,13.61-20.99,23.5-4.18,9.89-6.27,23.54-6.27,40.94v121.36h-37.6ZM1025.56,104.13v-43.24h37.6v43.24h-37.6ZM1025.56,367.12v-221.84h37.6v221.84h-37.6ZM1120.4,367.12v-221.84h33.63v31.12c6.96-10.86,16.22-19.6,27.78-26.21,11.56-6.61,24.72-9.92,39.48-9.92,16.43,0,29.9,3.41,40.42,10.24,10.51,6.82,17.93,16.36,22.25,28.62,17.55-25.9,40.38-38.85,68.51-38.85,22,0,38.92,6.09,50.76,18.28,11.83,12.19,17.76,30.95,17.76,56.29v152.28h-37.39v-139.75c0-15.04-1.22-25.87-3.66-32.48-2.44-6.61-6.86-11.94-13.26-15.98-6.41-4.04-13.93-6.06-22.56-6.06-15.6,0-28.55,5.19-38.85,15.56-10.31,10.38-15.46,26.98-15.46,49.82v128.88h-37.6v-144.13c0-16.71-3.06-29.24-9.19-37.6-6.13-8.36-16.16-12.53-30.08-12.53-10.58,0-20.37,2.79-29.35,8.36-8.98,5.57-15.49,13.72-19.53,24.44-4.04,10.73-6.06,26.18-6.06,46.37v115.1h-37.6ZM1476.97,104.13v-43.24h37.6v43.24h-37.6ZM1476.97,367.12v-221.84h37.6v221.84h-37.6ZM1571.38,367.12v-221.84h33.84v33.63c8.63-15.74,16.61-26.11,23.92-31.12,7.31-5.01,15.35-7.52,24.13-7.52,12.67,0,25.55,4.04,38.64,12.12l-12.95,34.88c-9.19-5.43-18.38-8.15-27.57-8.15-8.22,0-15.6,2.47-22.14,7.42-6.55,4.95-11.21,11.8-14,20.58-4.18,13.37-6.27,27.99-6.27,43.87v116.14h-37.6ZM1859.65,367.12v-32.59c-17.27,25.07-40.73,37.6-70.39,37.6-13.09,0-25.31-2.51-36.66-7.52-11.35-5.01-19.78-11.31-25.28-18.9-5.5-7.59-9.37-16.88-11.59-27.89-1.53-7.38-2.3-19.08-2.3-35.09v-137.45h37.6v123.03c0,19.64.76,32.87,2.3,39.69,2.37,9.89,7.38,17.65,15.04,23.29,7.66,5.64,17.13,8.46,28.41,8.46s21.86-2.89,31.75-8.67c9.89-5.78,16.88-13.65,20.99-23.6,4.11-9.96,6.16-24.4,6.16-43.34v-118.86h37.6v221.84h-33.63ZM2097.57,367.12v-32.59c-17.27,25.07-40.73,37.6-70.39,37.6-13.09,0-25.31-2.51-36.66-7.52-11.35-5.01-19.78-11.31-25.28-18.9-5.5-7.59-9.37-16.88-11.59-27.89-1.53-7.38-2.3-19.08-2.3-35.09v-137.45h37.6v123.03c0,19.64.76,32.87,2.3,39.69,2.37,9.89,7.38,17.65,15.04,23.29,7.66,5.64,17.13,8.46,28.41,8.46s21.86-2.89,31.75-8.67c9.89-5.78,16.88-13.65,20.99-23.6,4.11-9.96,6.16-24.4,6.16-43.34v-118.86h37.6v221.84h-33.63ZM274.87,553.99l-23.37-88.08h11.96l13.4,57.74c1.44,6.05,2.68,12.06,3.73,18.02,2.24-9.41,3.56-14.84,3.97-16.28l16.76-59.48h14.06l12.62,44.58c3.16,11.05,5.45,21.45,6.85,31.18,1.12-5.57,2.58-11.96,4.39-19.17l13.82-56.6h11.72l-24.15,88.08h-11.24l-18.57-67.11c-1.56-5.61-2.48-9.05-2.76-10.33-.92,4.05-1.78,7.49-2.58,10.33l-18.69,67.11h-11.9ZM425.09,553.99v-88.08h63.69v10.39h-52.03v26.98h48.73v10.33h-48.73v29.98h54.07v10.39h-65.73ZM555.67,553.99v-88.08h33.05c6.73,0,12.13.89,16.19,2.67,4.06,1.78,7.25,4.53,9.55,8.23,2.3,3.71,3.45,7.58,3.45,11.63,0,3.77-1.02,7.31-3.06,10.63-2.04,3.33-5.13,6.01-9.25,8.05,5.33,1.56,9.42,4.23,12.29,7.99,2.86,3.77,4.3,8.21,4.3,13.34,0,4.13-.87,7.96-2.61,11.51-1.74,3.54-3.9,6.28-6.46,8.2-2.56,1.92-5.78,3.38-9.64,4.36-3.87.98-8.6,1.47-14.21,1.47h-33.59ZM567.32,502.92h19.05c5.17,0,8.87-.34,11.12-1.02,2.96-.88,5.2-2.34,6.7-4.39,1.5-2.04,2.25-4.61,2.25-7.69,0-2.92-.7-5.5-2.1-7.72-1.4-2.22-3.4-3.74-6.01-4.57-2.6-.82-7.07-1.23-13.4-1.23h-17.6v26.62ZM567.32,543.6h21.93c3.76,0,6.41-.14,7.93-.42,2.68-.48,4.93-1.28,6.73-2.4,1.8-1.12,3.28-2.75,4.45-4.9,1.16-2.14,1.74-4.62,1.74-7.42,0-3.28-.84-6.14-2.52-8.56-1.68-2.42-4.02-4.13-7-5.11-2.98-.98-7.28-1.47-12.89-1.47h-20.37v30.28ZM770.85,553.99v-88.08h30.34c6.85,0,12.08.42,15.68,1.26,5.05,1.16,9.35,3.27,12.92,6.31,4.65,3.93,8.12,8.94,10.42,15.05,2.3,6.11,3.45,13.09,3.45,20.94,0,6.69-.78,12.62-2.34,17.78-1.56,5.17-3.57,9.44-6.01,12.83-2.44,3.39-5.12,6.05-8.02,7.99-2.9,1.94-6.41,3.42-10.51,4.42-4.11,1-8.82,1.5-14.15,1.5h-31.78ZM782.5,543.6h18.81c5.81,0,10.36-.54,13.67-1.62s5.94-2.6,7.9-4.57c2.76-2.76,4.92-6.48,6.46-11.15,1.54-4.67,2.31-10.32,2.31-16.97,0-9.21-1.51-16.29-4.54-21.24-3.02-4.95-6.7-8.26-11.02-9.94-3.12-1.2-8.15-1.8-15.08-1.8h-18.51v67.29ZM909.17,553.99v-88.08h63.69v10.39h-52.03v26.98h48.73v10.33h-48.73v29.98h54.07v10.39h-65.73ZM1065.4,553.99l-34.13-88.08h12.62l22.89,63.99c1.84,5.13,3.38,9.93,4.63,14.42,1.36-4.81,2.94-9.61,4.75-14.42l23.79-63.99h11.9l-34.49,88.08h-11.96ZM1171.76,553.99v-88.08h63.69v10.39h-52.03v26.98h48.73v10.33h-48.73v29.98h54.07v10.39h-65.73ZM1302.33,553.99v-88.08h11.66v77.69h43.38v10.39h-55.04ZM1416.92,511.09c0-14.62,3.92-26.07,11.78-34.34,7.85-8.27,17.98-12.41,30.4-12.41,8.13,0,15.46,1.94,21.99,5.83,6.53,3.89,11.51,9.3,14.93,16.25,3.42,6.95,5.14,14.83,5.14,23.64s-1.8,16.92-5.41,23.97c-3.61,7.05-8.71,12.39-15.32,16.01-6.61,3.63-13.74,5.44-21.39,5.44-8.29,0-15.7-2-22.23-6.01-6.53-4-11.48-9.47-14.84-16.4-3.36-6.93-5.05-14.26-5.05-21.99ZM1428.94,511.27c0,10.61,2.85,18.98,8.56,25.08,5.71,6.11,12.87,9.16,21.48,9.16s15.99-3.08,21.66-9.25c5.67-6.17,8.5-14.92,8.5-26.26,0-7.17-1.21-13.43-3.63-18.78-2.42-5.35-5.97-9.49-10.63-12.44-4.67-2.94-9.9-4.42-15.71-4.42-8.25,0-15.35,2.83-21.3,8.5-5.95,5.67-8.92,15.13-8.92,28.39ZM1565.4,553.99v-88.08h33.23c5.85,0,10.31.28,13.4.84,4.33.72,7.95,2.09,10.88,4.12,2.92,2.02,5.28,4.86,7.06,8.5,1.78,3.65,2.67,7.65,2.67,12.02,0,7.49-2.38,13.83-7.15,19.02-4.77,5.19-13.38,7.78-25.84,7.78h-22.59v35.81h-11.66ZM1577.05,507.79h22.77c7.53,0,12.88-1.4,16.04-4.21,3.16-2.8,4.75-6.75,4.75-11.84,0-3.68-.93-6.84-2.79-9.46-1.86-2.62-4.32-4.36-7.36-5.2-1.96-.52-5.59-.78-10.88-.78h-22.53v31.48ZM1696.93,553.99v-88.08h63.69v10.39h-52.03v26.98h48.73v10.33h-48.73v29.98h54.07v10.39h-65.73ZM1828.16,553.99v-88.08h39.05c7.85,0,13.82.79,17.9,2.37,4.09,1.58,7.35,4.38,9.79,8.38,2.44,4.01,3.67,8.43,3.67,13.28,0,6.25-2.02,11.52-6.07,15.8-4.05,4.29-10.29,7.01-18.75,8.17,3.08,1.48,5.43,2.94,7.03,4.39,3.4,3.12,6.63,7.03,9.67,11.72l15.32,23.97h-14.66l-11.66-18.33c-3.41-5.29-6.21-9.33-8.41-12.14s-4.18-4.77-5.92-5.89c-1.74-1.12-3.51-1.9-5.32-2.34-1.32-.28-3.48-.42-6.49-.42h-13.52v39.11h-11.66ZM1839.82,504.78h25.05c5.33,0,9.49-.55,12.5-1.65,3-1.1,5.29-2.86,6.85-5.29,1.56-2.42,2.34-5.06,2.34-7.9,0-4.17-1.51-7.59-4.54-10.27-3.03-2.68-7.8-4.03-14.33-4.03h-27.88v29.14Z"/>
</svg>